<svg id="Layer_1" data-name="Layer 1" xmlns="http://www.w3.org/2000/svg" viewBox="0 0 500 500"><defs><style>.cls-1{fill:#f6d300;}.cls-2{fill:#a5a5a5;}.cls-3{fill:#03ae32;}.cls-4{fill:#fff;stroke:#110606;stroke-miterlimit:10;stroke-width:0.25px;}</style></defs><title>Artboard 1</title><path class="cls-1" d="M237.36,500c30.31-20.87,53.06-48.22,58.33-90.56,7.08-141.41-109.89-178.66-156-79.22-.17-31.41,21.77-60.84,45.5-70.43C327.94,203.18,373.59,453.3,237.36,500Z"/><path class="cls-1" d="M272,495.92c41.67-27.3,72.95-63.1,80.18-118.5,9.74-185.07-151.07-233.81-214.49-103.68-.24-41.1,29.92-79.62,62.54-92.16C396.5,107.49,459.26,434.8,272,495.92Z"/><path class="cls-1" d="M306.45,495.92c53.82-33.25,94.2-76.83,103.55-144.29,10.93-240.58-216.46-298.14-276.87-91.15-4.22-52.73,36.63-131.87,94.72-149.13C466.24,40.48,545.39,405.26,306.45,495.92Z"/><path class="cls-2" d="M143.51,492.58c-6.71,10.07-13.23,9.71-19.59,0V273.83H5.16c-6.25-.38-7.49-10.18,0-19.45L211.4,4.33c5.79-5.78,11.34-5.76,17.21,0L316.3,90.84c3.46,7.35-5.68,18.65-14.43,14.24L224.51,28.77c-2.79-2.46-5.45-2.26-7.94,0L35.46,247.57c-3.53,4.34-4.38,7.25,0,7.42h99.27c6.13.64,9.54,3.71,9.77,9.64Z"/><path class="cls-3" d="M277.55,251.5c-10.94,14.21-27.47,37.91-36.63,55.7-4.52,7.57-14.93,3.93-10.62-5.18l18.9-33.37c1.72-2.77-1-3.49-4.9-4.25-29.92,1.48-39.1-23-46.08-56.62,35.64,2.86,57.2,18.47,61.36,48.45,14.23-14.6,33.45-30.65,50-40.16-36.24-7.6-46.28-34.1-47.94-67.21,44.4,4.51,65.58,24.39,58.68,59.73,9.93-3.79,31.69-13.54,38.55-19.39-26.87-8.75-31.07-37.93-32.37-72.33,32.29,14.54,50.22,35.65,46.08,65.54,10.85-5.71,32.27-18.19,39.48-25.26-26.64,2.5-44.83-25.33-49.4-54,28.51,5.18,59.73,14.76,57.74,48.53l24-20.9c-21.58-.27-31.75-14.56-31.24-38,17.29,5,39.08,14.39,35.87,34.18l17.37-16c1.71-1.67,4.23.16,3.23,2l-16.87,18c20-5.75,36.7,6.11,47.19,21.4-25.51,7.83-47.73,6.24-51.09-17.15l-23.67,22c28.61-8.07,48.75,13.29,63.91,32C458,195.78,428,192.91,420.31,161c-8.62,8.18-32.9,22.28-44.08,27.22,30.33-8.31,57.48,9.93,73.14,35.09-42.31,7.81-76.09,5.4-83.29-28.88-7.33,5.49-28.84,15.52-38.49,19.79,23.94-5.41,57.54,7.17,74.77,33.37-40.27,10-71.94,6.46-81.89-28.3-11.75,6.87-23.73,14.59-29.1,21.69,34,.72,48.7,31.47,65.5,62C275,290.63,282.57,247.59,277.55,251.5Z"/><polygon class="cls-3" points="184.19 320.64 247.36 320.64 247.36 349.46 274.05 349.46 274.05 432.27 249.07 432.27 249.07 460.28 184.19 460.28 184.19 432.06 157.45 432.06 157.45 349.26 184.17 349.26 184.19 320.64"/><path class="cls-4" d="M218.58,368.13v30.56c7.58.42,13.39-4.85,16.71-16.06a42.26,42.26,0,0,0,0-8.31c0-7.74,3.85-11,8.37-12.69,2.65-.55,3.15,4,2.1,4.58-3.92.71-6.61,3.63-6.51,8.86.16,3.76.17,8.09-.32,9.29-3.42,10.68-10,17.28-20.43,17.57v26.22l4.29,0v4.36H209.57v-4.4h3.58V402c-9.09-.1-16.25-6.13-19.68-15.29a53.45,53.45,0,0,1-.48-10.31c-.24-7.49-1.62-8.94-4.92-10.16-3-2.89.77-4.41,1.52-4.17,5.58,1.64,6.91,6.91,6.88,12V382c.75,9.8,8.4,16.91,16.85,16.62V368.15H209v-5.83h13.54V368Z"/></svg>