<svg xmlns="http://www.w3.org/2000/svg" viewBox="0 0 560 288"><defs><style>.cls-1{fill:#f6d300;}.cls-2{fill:#373435;}.cls-3{fill:#03ae32;}.cls-4{fill:#fff;stroke:#110606;stroke-miterlimit:10;stroke-width:0.25px;}</style></defs><title>Artboard 1</title><g id="kuning"><g id="_1" data-name="1"><path class="cls-1" d="M258.72,220.34c11.06-7.72,19.36-17.83,21.28-33.49,2.58-52.29-40.08-66.07-56.91-29.3-.07-11.61,7.94-22.5,16.59-26C291.77,110.57,308.42,203.07,258.72,220.34Z"/></g><g id="_2" data-name="2"><path class="cls-1" d="M271.35,218.83C286.55,208.73,298,195.5,300.6,175c3.56-68.44-55.11-86.46-78.24-38.34-.09-15.2,10.91-29.44,22.81-34.08C316.78,75.19,339.67,196.23,271.35,218.83Z"/></g><g id="_3" data-name="3"><path class="cls-1" d="M283.93,218.83c19.63-12.3,34.36-28.41,37.77-53.36,4-89-79-110.25-101-33.7-1.54-19.5,13.36-48.77,34.56-55.15C342.22,50.41,371.09,185.3,283.93,218.83Z"/></g></g><g id="Rumah"><path class="cls-2" d="M224.49,217.6c-2.45,3.72-4.83,3.59-7.15,0V136.7H174c-2.28-.14-2.73-3.76,0-7.19L249.26,37c2.11-2.14,4.13-2.13,6.27,0l32,32c1.26,2.72-2.07,6.9-5.26,5.27L254,46.08a1.93,1.93,0,0,0-2.9,0L185.07,127c-1.29,1.61-1.6,2.68,0,2.74h36.22c2.23.24,3.47,1.38,3.56,3.57Z"/></g><g id="daun"><path class="cls-3" d="M273.38,128.44A159.18,159.18,0,0,0,260,149c-1.65,2.8-5.45,1.46-3.87-1.91L263,134.79c.63-1-.36-1.29-1.78-1.58-10.92.55-14.27-8.51-16.81-20.93,13,1.06,20.86,6.83,22.38,17.91a92.33,92.33,0,0,1,18.26-14.85c-13.22-2.81-16.89-12.61-17.49-24.85,16.19,1.67,23.92,9,21.4,22.08,3.62-1.39,11.56-5,14.06-7.17-9.8-3.23-11.33-14-11.8-26.74C303,84,309.57,91.84,308.06,102.89c4-2.11,11.78-6.72,14.41-9.34-9.72.93-16.36-9.36-18-20,10.4,1.91,21.78,5.45,21.06,17.94l8.76-7.73c-7.87-.09-11.58-5.38-11.4-14,6.31,1.84,14.26,5.32,13.09,12.63l6.33-5.9a.7.7,0,0,1,1.18.73l-6.15,6.66c7.29-2.12,13.38,2.26,17.21,7.92-9.3,2.89-17.41,2.31-18.64-6.34l-8.63,8.12c10.44-3,17.78,4.91,23.31,11.84-11.37,2.41-22.32,1.35-25.11-10.45-3.14,3-12,8.23-16.08,10.06,11.07-3.07,21,3.68,26.68,13-15.43,2.89-27.75,2-30.38-10.68-2.68,2-10.52,5.74-14,7.32,8.73-2,21,2.65,27.27,12.34-14.69,3.71-26.24,2.39-29.87-10.47-4.28,2.54-8.66,5.4-10.61,8,12.4.27,17.76,11.64,23.89,22.92C272.45,142.91,275.22,127,273.38,128.44Z"/></g><g id="_" data-name="+"><polygon class="cls-3" points="239.33 154.01 262.37 154.01 262.37 164.67 272.11 164.67 272.11 195.29 263 195.29 263 205.65 239.33 205.65 239.33 195.21 229.57 195.21 229.57 164.6 239.32 164.6 239.33 154.01"/></g><g id="IDI"><path class="cls-4" d="M251.87,171.57v11.3c2.77.16,4.89-1.79,6.1-5.93a15.4,15.4,0,0,0,0-3.08,4.45,4.45,0,0,1,3-4.69c1-.2,1.15,1.48.77,1.69a2.91,2.91,0,0,0-2.37,3.28,14.35,14.35,0,0,1-.12,3.43c-1.25,4-3.66,6.39-7.46,6.5v9.7h1.57v1.61h-4.83v-1.63h1.3v-9.67c-3.31,0-5.92-2.26-7.18-5.65a19.78,19.78,0,0,1-.17-3.81c-.09-2.77-.59-3.31-1.8-3.76a.84.84,0,0,1,.56-1.54c2,.61,2.52,2.55,2.51,4.44v2.93c.27,3.63,3.06,6.26,6.14,6.15V171.58h-1.59v-2.15h4.94v2.11Z"/></g></svg>